<svg xmlns="http://www.w3.org/2000/svg" fill="none" viewBox="0 0 191 222" id="root" data-bid="mmwr66tqxzps49fhmn4694w"><g clip-path="url(#a)"><path fill="#fff" fill-opacity=".01" d="M0 .4h190.2v221.5H0V.4Z"></path><path fill="#0065FF" d="M122.7 119.9H49.4V37a36.7 36.7 0 0 1 73.3 0zm-61.3-12h49.3V37a24.698 24.698 0 0 0-24.65-23.13A24.7 24.7 0 0 0 61.4 37z"></path><path fill="#FF991F" d="M160.3 111.601a65.302 65.302 0 0 1-5.6-46.1 5.006 5.006 0 0 0-.931-4.3 5 5 0 0 0-3.969-1.9H19.1a5 5 0 0 0-4.9 6.1 65.9 65.9 0 0 1-5.8 46.3 75.5 75.5 0 0 0 65.2 110.2h17.9a75.506 75.506 0 0 0 77.3-75.5 73.992 73.992 0 0 0-8.5-34.8"></path><path fill="#FFAB00" d="M154.7 65.501a5.006 5.006 0 0 0-.931-4.3 5 5 0 0 0-3.969-1.9H36.9a5.1 5.1 0 0 0-4.9 6.1 65.9 65.9 0 0 1-5.7 46.3 74 74 0 0 0-8.4 36.7c1 40 33.6 72.5 73.6 73.5a75.515 75.515 0 0 0 29.446-5.222 75.516 75.516 0 0 0 41.94-40.964 75.499 75.499 0 0 0 5.914-29.314 73.992 73.992 0 0 0-8.5-34.8 65.302 65.302 0 0 1-5.6-46.1"></path><path fill="#FFC400" d="M93.4 214h-1.7a67.604 67.604 0 0 1-56.5-33.13 67.603 67.603 0 0 1-1.9-65.47 74.803 74.803 0 0 0 7.2-48.3h105.7a73.2 73.2 0 0 0 7.1 48.1 66.29 66.29 0 0 1 7.6 31.2A67.4 67.4 0 0 1 93.4 214"></path><path fill="#FFE380" d="m152.8 178.6-68.3-59-3.7 4.3 69.1 59.6z" style="mix-blend-mode:multiply"></path><path fill="#FFAB00" d="M90.4 170.601a14.213 14.213 0 0 1-10.8-5 13.91 13.91 0 0 1-3.2-11.4l1.9-12.6a21.102 21.102 0 0 1 14.1-35.8h1a21.1 21.1 0 0 1 21.1 21.1 20.799 20.799 0 0 1-6.1 14.7l2 12.6a14.396 14.396 0 0 1-3.3 11.4 14.193 14.193 0 0 1-10.8 5z"></path><path fill="#253858" d="M106.6 126.9a13.093 13.093 0 0 1-4.3 9.6 6.403 6.403 0 0 0-1.8 5.6l2.1 13.3a6.414 6.414 0 0 1-.195 2.703 6.414 6.414 0 0 1-3.46 4.009 6.407 6.407 0 0 1-2.645.588h-5.9a6.407 6.407 0 0 1-4.809-2.218A6.406 6.406 0 0 1 84.1 155.4l2.1-13.4a6.2 6.2 0 0 0-1.9-5.6 12.699 12.699 0 0 1-4.1-10.2 13.204 13.204 0 0 1 26.4.7"></path><path fill="#0065FF" d="M149.2 130.901H93.4a3.996 3.996 0 0 1-4.263-2.274 3.999 3.999 0 0 1 4.263-5.626h55.8a4 4 0 0 1 0 7.9"></path><path fill="#2684FF" d="M153.1 126.901a4.005 4.005 0 0 0-3.9-3.9h-36.8a3.996 3.996 0 0 0-4.263 2.274 4.01 4.01 0 0 0 0 3.352 3.997 3.997 0 0 0 2.55 2.175c.557.157 1.142.19 1.713.099h36.8a4.002 4.002 0 0 0 3.9-4"></path><path fill="#2684FF" d="M167.7 149.4a22.5 22.5 0 1 1-.002-45 22.5 22.5 0 0 1 .002 45m0-37.1a14.6 14.6 0 1 0 14.6 14.6 14.698 14.698 0 0 0-14.6-14.6"></path><path fill="#FFFAE5" d="M67.8 165.301H55.6a1.102 1.102 0 0 1-1-1 .999.999 0 0 1 1-1h12.2a.998.998 0 0 1 1 1 1.102 1.102 0 0 1-1 1M62.8 182.5a.797.797 0 0 1-.7-.3 1.002 1.002 0 0 1 0-1.4l8.4-8.5a.998.998 0 0 1 1.597.729 1 1 0 0 1-.197.671l-8.4 8.5c-.19.18-.438.286-.7.3M79.9 189.6a1.102 1.102 0 0 1-1-1v-13a1.097 1.097 0 0 1 1-1 .998.998 0 0 1 1 1v13a1 1 0 0 1-1 1M128.8 111.301h-12.1a.897.897 0 0 1-.743-.258.909.909 0 0 1-.214-.341.91.91 0 0 1-.043-.401.997.997 0 0 1 1-1h12.1a.997.997 0 0 1 1 1 .91.91 0 0 1-.043.401.909.909 0 0 1-.556.555.897.897 0 0 1-.401.044M113.2 102.601a1.102 1.102 0 0 1-.7-.3 1 1 0 0 1 0-1.4l8.5-8.4a1 1 0 0 1 1.4 1.4l-8.5 8.4a.902.902 0 0 1-.7.3M104.5 100a1 1 0 0 1-1-1V86.1a.998.998 0 0 1 1-1 .903.903 0 0 1 .957.6.91.91 0 0 1 .043.4V99a.91.91 0 0 1-.257.743.905.905 0 0 1-.743.257"></path></g><defs><clipPath id="a"><path fill="#fff" d="M0 .4h190.2v221.5H0V.4Z"></path></clipPath></defs></svg>